<!DOCTYPE svg PUBLIC "-//W3C//DTD SVG 20010904//EN" "http://www.w3.org/TR/2001/REC-SVG-20010904/DTD/svg10.dtd"[]><svg version="1.0" xmlns="http://www.w3.org/2000/svg" width="200" height="99" viewBox="0 0 209.000000 104.000000" preserveAspectRatio="xMidYMid meet"><metadata>Created by potrace 1.10, written by Peter Selinger 2001-2011</metadata><g transform="translate(0.000000,104.000000) scale(0.100000,-0.100000)" fill="#000000" stroke="none"><path d="M1272 881 c-18 -5 -51 -21 -75 -37 -38 -26 -51 -29 -152 -32 -88 -4 -115 -8 -134 -23 -30 -24 -49 -24 -86 1 -16 11 -44 20 -61 20 -17 0 -52 11 -79 25 -43 24 -58 26 -187 27 -129 1 -141 -1 -169 -21 -20 -15 -50 -24 -87 -28 -117 -10 -134 -35 -135 -207 0 -126 5 -146 45 -182 18 -17 41 -23 102 -28 104 -8 119 -18 134 -95 21 -118 83 -177 195 -187 34 -2 95 -12 135 -21 67 -14 78 -14 140 1 82 20 149 21 193 2 19 -7 43 -11 54 -9 11 3 128 8 260 12 132 4 248 11 258 15 35 16 51 66 52 159 0 105 9 117 92 117 70 0 126 24 160 68 26 35 28 44 31 148 3 108 3 112 -24 143 -48 57 -72 64 -259 68 -103 3 -178 9 -191 16 -12 7 -35 20 -51 29 -36 21 -116 30 -161 19z m126 -36 c20 -9 47 -25 58 -36 20 -18 35 -21 133 -20 61 0 113 -4 116 -9 4 -7 13 -6 25 0 48 26 141 3 178 -45 19 -23 21 -39 20 -123 -1 -111 -12 -141 -63 -172 -28 -17 -48 -21 -93 -19 -32 2 -67 -2 -79 -9 -12 -7 -29 -12 -39 -12 -15 0 -16 -10 -9 -110 7 -109 6 -109 -19 -135 l-26 -26 -203 1 c-118 0 -223 -4 -254 -11 -43 -10 -56 -9 -84 5 -41 20 -154 21 -189 1 -33 -19 -128 -19 -164 0 -16 9 -55 15 -93 15 -105 0 -167 44 -192 136 -6 23 -8 55 -5 73 4 18 2 31 -3 31 -6 0 -22 10 -37 21 -23 18 -42 22 -113 23 -120 2 -123 6 -123 182 0 166 5 174 105 174 55 0 68 4 89 25 23 23 29 24 165 24 135 0 142 -1 170 -24 22 -19 40 -25 79 -25 42 0 54 -4 70 -25 13 -16 30 -25 47 -25 17 0 37 10 51 25 22 24 28 25 138 25 110 0 116 1 143 26 57 54 131 68 201 39z" /><path d="M1273 774 c-91 -46 -120 -238 -48 -310 19 -19 35 -24 75 -24 68 0 87 12 116 73 40 87 29 203 -23 250 -29 26 -82 31 -120 11z m106 -33 c46 -46 51 -153 11 -219 -17 -27 -26 -32 -58 -32 -62 0 -102 57 -102 146 0 49 20 97 47 113 29 17 81 13 102 -8z" /><path d="M1302 698 c-15 -15 -16 -112 -2 -139 12 -21 50 -25 68 -7 15 15 16 99 0 133 -12 27 -45 34 -66 13z" /><path d="M374 733 c-3 -15 -7 -33 -9 -40 -4 -11 49 -220 57 -228 2 -2 26 -7 53 -10 72 -10 87 10 114 150 11 61 23 120 27 133 6 20 3 22 -39 22 -37 0 -49 -5 -65 -25 -24 -31 -30 -31 -34 -2 -3 19 -10 22 -50 25 -45 3 -48 1 -54 -25z m73 -5 c6 -7 18 -38 28 -68 29 -92 47 -91 60 1 8 54 28 89 44 74 6 -7 2 -44 -13 -110 l-22 -100 -35 -3 -34 -3 -28 93 c-16 51 -31 101 -34 111 -6 20 19 24 34 5z" /><path d="M1605 721 c-3 -2 0 -10 6 -17 13 -16 23 -144 12 -143 -4 0 -26 36 -47 80 -39 78 -40 79 -78 79 -36 0 -49 -12 -28 -25 6 -3 10 -46 10 -95 0 -49 -4 -92 -10 -95 -20 -12 -9 -25 20 -25 31 0 37 8 21 25 -10 10 -18 151 -10 159 2 3 27 -38 54 -90 45 -85 53 -94 79 -94 23 0 27 3 20 18 -11 24 -4 194 8 210 6 6 9 12 7 13 -17 4 -61 4 -64 0z" /><path d="M1750 713 c-49 -18 -80 -83 -66 -139 18 -70 108 -100 155 -50 24 26 12 48 -14 26 -21 -17 -60 -5 -73 24 -10 22 -8 24 26 30 78 12 104 57 56 95 -26 20 -54 25 -84 14z m48 -40 c3 -23 -20 -46 -42 -41 -13 3 -13 7 0 36 15 36 37 39 42 5z" /><path d="M210 605 l0 -105 75 0 75 0 0 30 c0 28 -2 30 -41 30 -28 0 -39 4 -36 13 2 7 17 11 35 9 28 -3 32 0 32 22 0 23 -4 26 -36 26 -45 0 -42 24 4 28 26 3 32 8 32 28 0 23 -2 24 -70 24 l-70 0 0 -105z" /><path d="M620 605 l0 -106 73 3 c70 3 72 4 75 31 3 26 1 27 -38 27 -29 0 -40 4 -37 13 2 6 17 12 33 12 22 0 30 5 32 23 3 19 -1 22 -32 22 -25 0 -36 4 -36 15 0 10 11 15 35 15 31 0 35 3 35 25 0 24 -2 25 -70 25 l-70 0 0 -105z" /><path d="M970 706 c0 -3 16 -31 35 -63 25 -42 35 -70 35 -100 l0 -43 40 0 40 0 0 43 c0 28 11 62 34 105 l34 62 -43 0 c-40 0 -44 -2 -50 -30 -4 -16 -10 -30 -15 -30 -5 0 -11 14 -15 30 -6 28 -10 30 -51 30 -24 0 -44 -2 -44 -4z" /><path d="M795 555 l0 -105 38 0 c38 0 38 1 36 34 -5 51 8 54 27 7 15 -39 18 -41 60 -41 24 0 44 3 44 6 0 3 -13 23 -29 43 -29 37 -30 38 -10 54 11 10 19 29 19 46 0 45 -31 61 -115 61 l-70 0 0 -105z m110 35 c0 -8 -8 -16 -17 -18 -13 -2 -18 3 -18 18 0 15 5 20 18 18 9 -2 17 -10 17 -18z" /><path d="M554 430 c-36 -15 -64 -59 -64 -102 0 -32 7 -47 35 -75 31 -31 39 -34 82 -31 46 3 48 4 51 36 3 30 1 32 -26 30 -34 -2 -62 16 -62 41 0 26 21 41 58 41 32 0 33 2 30 33 -3 30 -6 32 -43 34 -22 1 -50 -2 -61 -7z" /><path d="M1127 433 c-39 -6 -48 -38 -45 -147 l3 -91 30 3 c38 4 55 19 55 47 0 12 7 28 15 35 8 7 15 26 15 42 0 16 6 31 14 34 20 8 29 53 15 70 -11 14 -43 16 -102 7z m91 -25 c-3 -7 -19 -14 -36 -16 -26 -3 -32 -8 -32 -28 0 -14 6 -24 14 -24 24 0 30 -21 7 -27 -16 -4 -21 -13 -21 -39 0 -24 -5 -34 -15 -34 -12 0 -15 15 -17 65 -1 36 -2 73 -2 82 -1 18 29 30 77 32 19 1 27 -3 25 -11z" /><path d="M920 324 l0 -104 40 0 c39 0 40 1 40 35 0 32 2 35 30 35 25 0 30 4 30 24 0 21 -6 25 -32 28 -21 2 -33 8 -33 18 0 11 9 14 31 12 27 -3 32 1 36 23 3 14 2 28 -2 30 -4 3 -38 4 -74 4 l-66 -1 0 -104z" /><path d="M1259 415 c0 0 -3 -46 -6 -102 l-5 -103 76 0 76 0 0 31 c0 30 -1 31 -36 25 -31 -6 -35 -5 -32 11 2 13 11 17 31 15 23 -3 27 0 27 22 0 22 -4 26 -30 26 -21 0 -30 5 -30 16 0 11 8 15 31 12 28 -3 32 0 35 24 l3 28 -70 -2 c-38 -1 -69 -3 -70 -3z" /><path d="M1420 315 l0 -105 75 0 75 0 0 31 c0 30 -1 31 -34 25 -35 -7 -56 6 -34 21 7 4 23 6 36 4 18 -2 22 2 22 23 0 21 -5 25 -32 28 -44 4 -36 24 7 21 33 -2 35 0 35 27 l0 30 -75 0 -75 0 0 -105z" /><path d="M728 393 c-69 -43 -62 -162 12 -193 43 -18 100 -6 128 25 24 29 31 100 12 136 -25 45 -103 62 -152 32z m86 -59 c9 -8 16 -24 16 -34 0 -19 -25 -50 -41 -50 -12 0 -49 37 -49 50 0 13 37 50 49 50 5 0 17 -7 25 -16z" /></g></svg>